<svg width="29" height="28" viewBox="0 0 29 28" fill="none" xmlns="http://www.w3.org/2000/svg">
<g id="Group">
<path id="Vector" d="M28.266 14C28.266 6.2682 21.9981 0.000244141 14.2663 0.000244141C6.53456 0.000244141 0.266602 6.2682 0.266602 14C0.266602 20.5653 4.78683 26.0744 10.8845 27.5875V18.2783H7.99781V14H10.8845V12.1565C10.8845 7.39154 13.0411 5.18294 17.7192 5.18294C18.6062 5.18294 20.1367 5.3571 20.7628 5.53069V9.40862C20.4324 9.3739 19.8584 9.35654 19.1455 9.35654C16.8501 9.35654 15.9631 10.2262 15.9631 12.4869V14H20.536L19.7503 18.2783H15.9631V27.8972C22.8952 27.06 28.2666 21.1577 28.2666 14H28.266Z" fill="#0866FF"/>
<path id="Vector_2" d="M19.7505 18.2783L20.5362 14H15.9633V12.4869C15.9633 10.2262 16.8503 9.35658 19.1457 9.35658C19.8586 9.35658 20.4326 9.37394 20.763 9.40866V5.53074C20.1369 5.35658 18.6065 5.18298 17.7195 5.18298C13.0413 5.18298 10.8848 7.39158 10.8848 12.1565V14H7.99805V18.2783H10.8848V27.5876C11.9678 27.8564 13.1007 27.9997 14.2666 27.9997C14.8406 27.9997 15.4067 27.9644 15.9628 27.8972V18.2783H19.75H19.7505Z" fill="white"/>
</g>
</svg>
