<svg width="48" height="48" xmlns="http://www.w3.org/2000/svg"><g fill="none" fill-rule="evenodd"><path d="M0 0h48v48H0z"/><path d="M43.437 41.27H4.563a2.2 2.2 0 0 1-2.2-2.2V10.624a2.2 2.2 0 0 1 2.2-2.2h38.874a2.2 2.2 0 0 1 2.2 2.2v28.402a2.2 2.2 0 0 1-2.2 2.244zM4.563 9.876a.748.748 0 0 0-.748.748v28.402a.76.76 0 0 0 .748.748h38.874a.759.759 0 0 0 .748-.748V10.624a.748.748 0 0 0-.748-.748H4.563zm-1.496 4.488h41.855v1.496H3.067v-1.496zm35.134-8.228h1.496v2.992h-1.496V6.136zm-9.966 0h1.496v2.992h-1.496V6.136zm-9.966 0h1.496v2.992h-1.496V6.136zm-9.966 0h1.496v2.992H8.303V6.136zm.748 15.697h5.984v1.496H9.051v-1.496zm0 9.845h5.984v1.496H9.051v-1.496zm11.957-9.845h5.984v1.496h-5.984v-1.496zm0 9.845h5.984v1.496h-5.984v-1.496zm11.957-9.845h5.984v1.496h-5.984v-1.496zm.344 12.18l4.231-4.231 1.058 1.057-4.231 4.232-1.058-1.058zm0-3.174l1.058-1.057 4.231 4.231-1.058 1.058-4.23-4.232z" fill="#00243D" fill-rule="nonzero"/></g></svg>