<svg width="32" height="32" viewBox="0 0 32 32" fill="none" xmlns="http://www.w3.org/2000/svg">
<g id="Instagram">
<g id="Vector">
<path d="M10.6159 3.0911C9.23274 3.15636 8.28816 3.3771 7.4624 3.70158C6.60778 4.03464 5.88342 4.48158 5.1627 5.2049C4.44198 5.92822 3.99816 6.6531 3.66744 7.50902C3.34738 8.3366 3.13054 9.28196 3.06944 10.6659C3.00834 12.0499 2.99482 12.4948 3.00158 16.0251C3.00834 19.5553 3.02394 19.9979 3.09102 21.3847C3.15706 22.7676 3.37702 23.712 3.7015 24.538C4.03508 25.3926 4.4815 26.1167 5.20508 26.8377C5.92866 27.5587 6.65302 28.0014 7.51102 28.3327C8.33782 28.6522 9.28344 28.8701 10.6672 28.9307C12.0509 28.9913 12.4963 29.0053 16.0255 28.9985C19.5547 28.9918 19.9991 28.9762 21.3857 28.9104C22.7722 28.8446 23.7116 28.6231 24.5379 28.3002C25.3925 27.9658 26.1171 27.5202 26.8376 26.7963C27.5581 26.0725 28.0016 25.3471 28.3321 24.4907C28.6524 23.6639 28.87 22.7182 28.9301 21.3356C28.9907 19.9479 29.005 19.5049 28.9982 15.9751C28.9914 12.4454 28.9756 12.0029 28.9098 10.6165C28.844 9.23022 28.6238 8.28876 28.2996 7.46222C27.9655 6.6076 27.5196 5.88402 26.7963 5.16252C26.0729 4.44102 25.347 3.99772 24.4908 3.66804C23.6635 3.34798 22.7184 3.12984 21.3347 3.07004C19.951 3.01024 19.5056 2.9949 15.9751 3.00166C12.4445 3.00842 12.0025 3.0235 10.6159 3.0911ZM10.7678 26.592C9.50028 26.5369 8.81206 26.3263 8.35342 26.15C7.74606 25.916 7.31342 25.6331 6.85634 25.1804C6.39926 24.7278 6.11846 24.2936 5.88134 23.6875C5.70324 23.2289 5.48874 22.5414 5.42946 21.2739C5.36498 19.904 5.35146 19.4927 5.34392 16.0219C5.33638 12.5512 5.34964 12.1404 5.4097 10.7699C5.46378 9.50348 5.67568 8.81448 5.8517 8.3561C6.0857 7.74796 6.36754 7.3161 6.82124 6.85928C7.27494 6.40246 7.70784 6.12114 8.31442 5.88402C8.77254 5.70514 9.45998 5.49246 10.727 5.43214C12.0979 5.36714 12.5087 5.35414 15.979 5.3466C19.4492 5.33906 19.861 5.35206 21.2325 5.41238C22.499 5.4675 23.1882 5.67732 23.6461 5.85438C24.2537 6.08838 24.6861 6.36944 25.1429 6.82392C25.5997 7.2784 25.8813 7.70974 26.1184 8.31762C26.2976 8.77444 26.5103 9.46162 26.5701 10.7294C26.6353 12.1004 26.6501 12.5114 26.6564 15.9814C26.6626 19.4513 26.6504 19.8634 26.5903 21.2334C26.535 22.5009 26.3249 23.1894 26.1483 23.6485C25.9143 24.2556 25.6322 24.6885 25.1783 25.1451C24.7243 25.6016 24.2919 25.883 23.6851 26.1201C23.2275 26.2987 22.5393 26.5119 21.2733 26.5722C19.9024 26.6367 19.4916 26.6502 16.02 26.6578C12.5485 26.6653 12.139 26.6513 10.768 26.592M21.3656 9.05212C21.3662 9.36068 21.4582 9.66216 21.63 9.91843C21.8019 10.1747 22.0459 10.3742 22.3312 10.4918C22.6165 10.6094 22.9302 10.6397 23.2327 10.579C23.5352 10.5183 23.813 10.3692 24.0307 10.1506C24.2485 9.932 24.3966 9.65373 24.4562 9.35099C24.5159 9.04825 24.4844 8.73462 24.3657 8.44977C24.2471 8.16493 24.0467 7.92166 23.7898 7.75073C23.5329 7.57981 23.2311 7.48891 22.9225 7.48952C22.5089 7.49035 22.1125 7.65543 21.8205 7.94846C21.5286 8.24149 21.365 8.63847 21.3656 9.05212ZM9.32504 16.0131C9.33232 19.6999 12.3265 22.6818 16.0125 22.6748C19.6985 22.6678 22.6825 19.6739 22.6755 15.9871C22.6685 12.3003 19.6736 9.31758 15.987 9.32486C12.3005 9.33214 9.31802 12.3268 9.32504 16.0131ZM11.6666 16.0084C11.6649 15.1514 11.9174 14.313 12.3921 13.5995C12.8669 12.8859 13.5426 12.3291 14.3338 11.9996C15.1249 11.67 15.9961 11.5825 16.837 11.748C17.6779 11.9136 18.4509 12.3248 19.0581 12.9296C19.6654 13.5344 20.0796 14.3058 20.2485 15.146C20.4174 15.9863 20.3333 16.8578 20.0068 17.6502C19.6804 18.4427 19.1263 19.1206 18.4147 19.5982C17.703 20.0758 16.8657 20.3316 16.0086 20.3333C15.4395 20.3345 14.8758 20.2235 14.3495 20.0068C13.8233 19.7901 13.3449 19.4719 12.9417 19.0703C12.5385 18.6686 12.2184 18.1915 11.9996 17.6662C11.7808 17.1408 11.6677 16.5775 11.6666 16.0084Z" fill="url(#paint0_linear_22478_134)"/>
<path d="M10.6159 3.0911C9.23274 3.15636 8.28816 3.3771 7.4624 3.70158C6.60778 4.03464 5.88342 4.48158 5.1627 5.2049C4.44198 5.92822 3.99816 6.6531 3.66744 7.50902C3.34738 8.3366 3.13054 9.28196 3.06944 10.6659C3.00834 12.0499 2.99482 12.4948 3.00158 16.0251C3.00834 19.5553 3.02394 19.9979 3.09102 21.3847C3.15706 22.7676 3.37702 23.712 3.7015 24.538C4.03508 25.3926 4.4815 26.1167 5.20508 26.8377C5.92866 27.5587 6.65302 28.0014 7.51102 28.3327C8.33782 28.6522 9.28344 28.8701 10.6672 28.9307C12.0509 28.9913 12.4963 29.0053 16.0255 28.9985C19.5547 28.9918 19.9991 28.9762 21.3857 28.9104C22.7722 28.8446 23.7116 28.6231 24.5379 28.3002C25.3925 27.9658 26.1171 27.5202 26.8376 26.7963C27.5581 26.0725 28.0016 25.3471 28.3321 24.4907C28.6524 23.6639 28.87 22.7182 28.9301 21.3356C28.9907 19.9479 29.005 19.5049 28.9982 15.9751C28.9914 12.4454 28.9756 12.0029 28.9098 10.6165C28.844 9.23022 28.6238 8.28876 28.2996 7.46222C27.9655 6.6076 27.5196 5.88402 26.7963 5.16252C26.0729 4.44102 25.347 3.99772 24.4908 3.66804C23.6635 3.34798 22.7184 3.12984 21.3347 3.07004C19.951 3.01024 19.5056 2.9949 15.9751 3.00166C12.4445 3.00842 12.0025 3.0235 10.6159 3.0911ZM10.7678 26.592C9.50028 26.5369 8.81206 26.3263 8.35342 26.15C7.74606 25.916 7.31342 25.6331 6.85634 25.1804C6.39926 24.7278 6.11846 24.2936 5.88134 23.6875C5.70324 23.2289 5.48874 22.5414 5.42946 21.2739C5.36498 19.904 5.35146 19.4927 5.34392 16.0219C5.33638 12.5512 5.34964 12.1404 5.4097 10.7699C5.46378 9.50348 5.67568 8.81448 5.8517 8.3561C6.0857 7.74796 6.36754 7.3161 6.82124 6.85928C7.27494 6.40246 7.70784 6.12114 8.31442 5.88402C8.77254 5.70514 9.45998 5.49246 10.727 5.43214C12.0979 5.36714 12.5087 5.35414 15.979 5.3466C19.4492 5.33906 19.861 5.35206 21.2325 5.41238C22.499 5.4675 23.1882 5.67732 23.6461 5.85438C24.2537 6.08838 24.6861 6.36944 25.1429 6.82392C25.5997 7.2784 25.8813 7.70974 26.1184 8.31762C26.2976 8.77444 26.5103 9.46162 26.5701 10.7294C26.6353 12.1004 26.6501 12.5114 26.6564 15.9814C26.6626 19.4513 26.6504 19.8634 26.5903 21.2334C26.535 22.5009 26.3249 23.1894 26.1483 23.6485C25.9143 24.2556 25.6322 24.6885 25.1783 25.1451C24.7243 25.6016 24.2919 25.883 23.6851 26.1201C23.2275 26.2987 22.5393 26.5119 21.2733 26.5722C19.9024 26.6367 19.4916 26.6502 16.02 26.6578C12.5485 26.6653 12.139 26.6513 10.768 26.592M21.3656 9.05212C21.3662 9.36068 21.4582 9.66216 21.63 9.91843C21.8019 10.1747 22.0459 10.3742 22.3312 10.4918C22.6165 10.6094 22.9302 10.6397 23.2327 10.579C23.5352 10.5183 23.813 10.3692 24.0307 10.1506C24.2485 9.932 24.3966 9.65373 24.4562 9.35099C24.5159 9.04825 24.4844 8.73462 24.3657 8.44977C24.2471 8.16493 24.0467 7.92166 23.7898 7.75073C23.5329 7.57981 23.2311 7.48891 22.9225 7.48952C22.5089 7.49035 22.1125 7.65543 21.8205 7.94846C21.5286 8.24149 21.365 8.63847 21.3656 9.05212ZM9.32504 16.0131C9.33232 19.6999 12.3265 22.6818 16.0125 22.6748C19.6985 22.6678 22.6825 19.6739 22.6755 15.9871C22.6685 12.3003 19.6736 9.31758 15.987 9.32486C12.3005 9.33214 9.31802 12.3268 9.32504 16.0131ZM11.6666 16.0084C11.6649 15.1514 11.9174 14.313 12.3921 13.5995C12.8669 12.8859 13.5426 12.3291 14.3338 11.9996C15.1249 11.67 15.9961 11.5825 16.837 11.748C17.6779 11.9136 18.4509 12.3248 19.0581 12.9296C19.6654 13.5344 20.0796 14.3058 20.2485 15.146C20.4174 15.9863 20.3333 16.8578 20.0068 17.6502C19.6804 18.4427 19.1263 19.1206 18.4147 19.5982C17.703 20.0758 16.8657 20.3316 16.0086 20.3333C15.4395 20.3345 14.8758 20.2235 14.3495 20.0068C13.8233 19.7901 13.3449 19.4719 12.9417 19.0703C12.5385 18.6686 12.2184 18.1915 11.9996 17.6662C11.7808 17.1408 11.6677 16.5775 11.6666 16.0084Z" fill="url(#paint1_radial_22478_134)"/>
</g>
</g>
<defs>
<linearGradient id="paint0_linear_22478_134" x1="4.517" y1="4.36707" x2="12.7146" y2="36.0762" gradientUnits="userSpaceOnUse">
<stop stop-color="#4E60D3"/>
<stop offset="0.142763" stop-color="#913BAF"/>
<stop offset="0.761458" stop-color="#D52D88"/>
<stop offset="1" stop-color="#F26D4F"/>
</linearGradient>
<radialGradient id="paint1_radial_22478_134" cx="0" cy="0" r="1" gradientUnits="userSpaceOnUse" gradientTransform="translate(10.8712 29.0001) rotate(32.1603) scale(24.2824 17.4753)">
<stop stop-color="#FED276"/>
<stop offset="0.17024" stop-color="#FDBD61" stop-opacity="0.975006"/>
<stop offset="0.454081" stop-color="#F6804D"/>
<stop offset="1" stop-color="#E83D5C" stop-opacity="0.01"/>
</radialGradient>
</defs>
</svg>
