<svg width="33" height="32" viewBox="0 0 33 32" fill="none" xmlns="http://www.w3.org/2000/svg">
<g id="Social Media Icon (community-figma-only)">
<path id="Path_2520" d="M24.7179 24.4477H21.1618V18.8802C21.1618 17.5541 21.1396 15.8427 19.3134 15.8427C17.4872 15.8427 17.176 17.2911 17.176 18.7839V24.4477H13.6199V12.9941H17.0352V14.5573H17.0834C17.7798 13.3682 19.0726 12.657 20.4506 12.7089C24.0548 12.7089 24.7179 15.0796 24.7179 18.1653V24.4477ZM9.60817 11.4309C8.46725 11.4309 7.54489 10.5085 7.54489 9.36761C7.54489 8.2267 8.46725 7.30433 9.60817 7.30433C10.7491 7.30433 11.6714 8.2267 11.6714 9.36761C11.6714 10.5085 10.7491 11.4309 9.60817 11.4309ZM11.3862 24.4477H7.82641V12.9941H11.3862V24.4477ZM26.4885 4.00012H6.03725C5.07043 3.98901 4.27771 4.7669 4.2666 5.73001V26.2665C4.27771 27.2333 5.07043 28.0075 6.03725 28.0001H26.4885C27.4591 28.0112 28.2518 27.237 28.2666 26.2665V5.73001C28.2518 4.7632 27.4591 3.98901 26.4885 4.00012Z" fill="#0A66C2"/>
</g>
</svg>
