<?xml version="1.0" encoding="UTF-8"?>
<svg id="Layer_1" xmlns="http://www.w3.org/2000/svg" version="1.1" viewBox="0 0 24 24">
  <!-- Generator: Adobe Illustrator 29.4.0, SVG Export Plug-In . SVG Version: 2.1.0 Build 152)  -->
  <defs>
    <style>
      .st0 {
        fill: #141414;
      }
    </style>
  </defs>
  <path class="st0" d="M19.1,13.95c2.99-3.28,2.76-8.36-.52-11.35-3.07-2.8-7.77-2.8-10.84,0l-1.09-1.09c-.15-.15-.35-.23-.56-.23-.21,0-.4.09-.54.24-3.88,4.2-3.61,10.75.59,14.63,1.81,1.67,4.17,2.65,6.63,2.74v1.54h-3.45c-.85,0-1.53.69-1.53,1.53v1.15c0,.21.17.38.38.38h9.97c.21,0,.38-.17.38-.38v-1.15c0-.85-.69-1.53-1.53-1.53h-3.45v-1.54c2.47-.09,4.83-1.06,6.64-2.74.15-.14.24-.34.24-.54,0-.21-.08-.41-.23-.56l-1.09-1.09ZM17.75,21.97v.77h-9.2v-.77c0-.42.34-.77.77-.77h7.67c.42,0,.77.34.77.77ZM13.15,1.27c4.02,0,7.29,3.25,7.29,7.27,0,4.02-3.25,7.29-7.27,7.29-1.48,0-2.93-.45-4.15-1.29l1.33-3.32c.11-.28.05-.61-.17-.83l-1.9-1.9c-.26-.26-.66-.3-.97-.1l-1.4.93c-.44-3.99,2.43-7.58,6.42-8.03.27-.03.54-.05.82-.04ZM6.05,10.16l1.68-1.12,1.9,1.9-1.24,3.11c-1.17-1.01-1.99-2.38-2.34-3.89ZM6.37,15.33c-3.65-3.63-3.77-9.5-.26-13.27l1.09,1.09c-3,3.28-2.77,8.36.51,11.35,3.07,2.81,7.78,2.81,10.85,0l1.09,1.09c-3.77,3.51-9.65,3.39-13.28-.27Z"/>
  <path class="st0" d="M10.57,7.55l1.85,1.23.67,3.37c.07.36.39.62.75.62h.92c.35,0,.66-.24.74-.58l.65-2.6,1.23-.62c.18-.09.32-.25.38-.44l.64-1.92h0c.09-.28.02-.58-.19-.79l-1.25-1.25c-.14-.14-.34-.23-.54-.22h-4.24c-.26,0-.5.13-.64.34l-1.21,1.81c-.23.35-.14.83.21,1.06h0ZM12.21,5.1h4.24l1.25,1.25-.64,1.92-1.23.62c-.2.1-.35.28-.4.5l-.65,2.61h-.92l-.67-3.37c-.04-.2-.16-.37-.33-.49l-1.85-1.23,1.21-1.81Z"/>
</svg>