<?xml version="1.0" encoding="UTF-8"?>
<svg id="Layer_1" xmlns="http://www.w3.org/2000/svg" version="1.1" viewBox="0 0 24 24">
  <!-- Generator: Adobe Illustrator 29.4.0, SVG Export Plug-In . SVG Version: 2.1.0 Build 152)  -->
  <defs>
    <style>
      .st0 {
        fill: #141414;
      }
    </style>
  </defs>
  <path class="st0" d="M22.82,6.59h-4.26l-1.34-1.33c-.44-.45-1.04-.7-1.67-.7h-7.12c-.63,0-1.23.25-1.67.7l-1.34,1.33H1.18c-.37,0-.68.3-.68.68v6.09c0,.37.3.68.68.68h3.09c.06.23.18.45.35.62l4.4,4.4c.52.53,1.37.53,1.89.01,0,0,0,0,.01-.01l.6-.59c.16-.17.3-.36.41-.56l1.15,1.15c.52.53,1.37.53,1.89.01,0,0,0,0,.01-.01l4.4-4.4c.17-.17.3-.38.36-.62h3.08c.37,0,.68-.3.68-.68v-6.09c0-.37-.3-.68-.68-.68ZM5.09,14.17c-.26-.27-.26-.69,0-.96l.6-.6c.58-.58,1.49-.66,2.16-.19l-2.25,2.25-.5-.5ZM6.07,15.15l2.27-2.27.98.98-2.27,2.27-.98-.97ZM7.54,16.61l2.27-2.27.98.98-2.27,2.27-.97-.98ZM11.05,17.97l-.6.6c-.27.26-.69.26-.96,0l-.5-.5,2.25-2.25c.47.67.39,1.58-.19,2.16ZM18.91,14.17l-.54.54-1.79-1.79-.48.48,1.79,1.79-.98.97-1.79-1.79-.47.47,1.79,1.79-.98.98-1.79-1.79-.48.48,1.79,1.79-.46.46c-.27.26-.69.26-.96,0l-1.37-1.38c.02-.14.04-.27.04-.41,0-.63-.25-1.23-.7-1.67l-2.96-2.96c-.94-.9-2.41-.9-3.35,0l-.59.6c-.17.17-.29.38-.35.62H1.18v-6.09h4.26c.18,0,.35-.07.48-.2l1.33-1.34c.32-.31.75-.49,1.2-.49h1.39l-2.23,2.23c-.26.27-.26.69,0,.96l.36.35c.92.92,2.41.93,3.33.01,0,0,0,0,.01-.01l.5-.49h2.16l4.94,4.93c.26.27.26.69,0,.96ZM22.82,13.35h-3.08c-.06-.23-.19-.45-.36-.62l-4.93-4.94c-.13-.13-.3-.2-.48-.2h-2.16c-.18,0-.35.07-.48.2l-.49.5c-.66.66-1.73.66-2.39,0l-.35-.36,2.71-2.71h4.77c.45,0,.88.18,1.2.49l1.33,1.34c.13.13.3.2.48.2h4.26v6.09Z"/>
</svg>