<?xml version="1.0" encoding="UTF-8"?>
<svg id="Layer_1" xmlns="http://www.w3.org/2000/svg" version="1.1" viewBox="0 0 24 24">
  <!-- Generator: Adobe Illustrator 29.4.0, SVG Export Plug-In . SVG Version: 2.1.0 Build 152)  -->
  <defs>
    <style>
      .st0 {
        fill: #141414;
      }
    </style>
  </defs>
  <path class="st0" d="M21.01,3.04c-.08-.07-.18-.09-.27-.08C15.65,3.73,12.37.63,12.34.6c-.13-.13-.34-.13-.47,0C8.5,3.74,3.34,2.97,3.29,2.96c-.19-.03-.36.1-.39.28,0,.02,0,.04,0,.05l-.03,12.95c0,.56.26,1.09.7,1.42l7.14,5.43c.34.26.76.4,1.19.4.41,0,.81-.13,1.16-.38l7.12-5.18c.6-.43.95-1.13.95-1.87V3.3c0-.1-.04-.2-.12-.26ZM20.45,16.08c0,.52-.25,1.01-.67,1.31l-7.12,5.17c-.46.34-1.08.33-1.54-.02l-7.14-5.43c-.27-.21-.43-.53-.43-.87l.03-12.56c1.3.13,5.45.29,8.52-2.38.85.72,3.87,2.91,8.34,2.39v12.39h0Z"/>
  <path class="st0" d="M12.32,2.95c-.13-.13-.34-.13-.47,0-2.64,2.46-6.67,1.86-6.71,1.85-.19-.03-.36.1-.39.29,0,.02,0,.04,0,.05l-.02,10.22c0,.46.22.9.58,1.18l5.64,4.28c.29.22.64.34.99.34s.67-.1.96-.31l5.62-4.08c.49-.36.78-.93.78-1.53V5.13c0-.19-.15-.34-.34-.34-.02,0-.03,0-.05,0-3.98.6-6.54-1.82-6.57-1.85ZM18.59,15.22c0,.38-.19.75-.5.98l-5.62,4.09c-.34.25-.8.24-1.13-.01l-5.64-4.28c-.2-.15-.31-.38-.31-.63l.02-9.84c1.11.1,4.27.17,6.66-1.87.74.6,3.08,2.24,6.51,1.87v9.7h0Z"/>
  <path class="st0" d="M11.81,12.83h-.33l-1.05-1.41-.55.41,1.11,1.48c.1.13.25.21.41.21h.52c.18,0,.34-.09.44-.24l1.8-2.94-.59-.36s-1.75,2.85-1.75,2.85Z"/>
  <path class="st0" d="M8.6,8.6c-1.87,1.88-1.87,4.92,0,6.8.9.9,2.12,1.41,3.4,1.41,1.27,0,2.5-.5,3.4-1.41,1.87-1.88,1.87-4.92,0-6.8-1.88-1.87-4.93-1.87-6.8,0h0ZM14.91,14.91c-1.61,1.61-4.22,1.61-5.83,0-1.61-1.61-1.61-4.22,0-5.83.77-.77,1.82-1.21,2.91-1.2,1.05,0,2.11.4,2.91,1.2,1.61,1.61,1.61,4.22,0,5.83Z"/>
</svg>